<?xml version="1.0" encoding="UTF-8"?>
<svg xmlns="http://www.w3.org/2000/svg" viewBox="0 0 900 600">
  <style>
    path {
      fill: #000000;
    }
    @media (prefers-color-scheme: dark) {
      path {
        fill: #FFFFFF;
      }
    }
  </style>
  <g>
    <path d="M799.3,366.6l-58.6-132.1l-45.6-106.2c-8.2-19-26.9-31.3-47.5-31.3H493.8h-54h-54H231.9c-20.7,0-39.4,12.3-47.5,31.3 l-45.6,106.2L80.2,366.6c-1.1,2.5,0.7,5.4,3.5,5.4h110.5c2.2,0,4.2-1.3,5-3.3l55.9-128.1c1.6-3.7,5.3-6.1,9.3-6.1H383 c1.5,0,2.7,1.2,2.7,2.7V369c0,1.7,1.3,3,3,3h51h51c1.7,0,3-1.3,3-3V237.2c0-1.5,1.2-2.7,2.7-2.7H615c4,0,7.7,2.4,9.3,6.1 l55.9,128.1c0.9,2,2.8,3.3,5,3.3h110.5C798.6,372,800.4,369.1,799.3,366.6z"/>
    <g>
      <path d="M412.4,475l-12-29c-0.8-1.9-2.6-3.1-4.6-3.1h-30.9c-2.8,0-5,2.2-5,5v31.5c0,1.5,1.2,2.7,2.7,2.7h4.6 c1.5,0,2.7-1.2,2.7-2.7v-26.5h22.6l10.8,26.1c0.8,1.9,2.6,3.1,4.6,3.1c0.8,0,1.5-0.2,2.2-0.5C412.4,480.5,413.4,477.6,412.4,475 C412.4,475,412.4,475,412.4,475z"/>
      <path d="M567.7,442.9h-2.3h-1.5h-91.6h-1.4h-2.5c-1.5,0-2.7,1.2-2.7,2.7v4.6c0,1.5,1.2,2.7,2.7,2.7h2.3h1.5h40.8v24 c0,0,0,0,0,0v2.4c0,1.5,1.2,2.7,2.7,2.7h4.6c1.5,0,2.7-1.2,2.7-2.7v-3.8c0,0,0,0,0,0v-22.6h40.8h1.4h2.5c1.5,0,2.7-1.2,2.7-2.7 v-4.6C570.4,444.1,569.2,442.9,567.7,442.9z"/>
      <path d="M689.3,472.1h-46.6v-22.7v-1.5v-2.3c0-1.5-1.2-2.7-2.7-2.7h-2.2c0,0,0,0,0,0h-2.3c-1.5,0-2.7,1.2-2.7,2.7v2.5 v1.4v27.7c0,2.8,2.2,5,5,5h51.6c1.5,0,2.7-1.2,2.7-2.7v-4.6C692,473.4,690.8,472.1,689.3,472.1z"/>
      <path d="M807.4,452.9c1.5,0,2.7-1.2,2.7-2.7v-4.6c0-1.5-1.2-2.7-2.7-2.7h-50.2c-2.8,0-5,2.2-5,5v29.2c0,2.8,2.2,5,5,5 h50.2c1.5,0,2.7-1.2,2.7-2.7v-4.6c0-1.5-1.2-2.7-2.7-2.7h-45.2v-4.6h35.1c1.5,0,2.7-1.2,2.7-2.7v-4.6c0-1.5-1.2-2.7-2.7-2.7h-35.1 v-4.6H807.4z"/>
      <path d="M181.2,479.3l-2-4.3c0,0,0-0.1,0-0.1l-13.3-29.1c-0.8-1.8-2.6-2.9-4.5-2.9H87.6c-2,0-3.7,1.1-4.5,2.9 l-15.3,33.4c-0.3,0.6-0.2,1.3,0.1,1.9c0.4,0.6,1,0.9,1.7,0.9h6.3c1,0,1.9-0.6,2.3-1.5l0.7-1.4c0,0,0,0,0,0l12-26.3h28.7l0,22.6 c0,0,0,0.1,0,0.1v3.9c0,1.5,1.2,2.7,2.7,2.7h4.6c1.5,0,2.7-1.2,2.7-2.7v-2.2c0,0,0-0.1,0-0.1l0-24.2h28.7l7.9,17.4 c0,0,0,0.1,0,0.1l4.7,10.3c0.4,0.9,1.3,1.5,2.3,1.5h6.3c0.7,0,1.3-0.3,1.7-0.9C181.4,480.6,181.5,479.9,181.2,479.3 C181.2,479.3,181.2,479.3,181.2,479.3z M180.3,479.7L180.3,479.7L180.3,479.7L180.3,479.7z"/>
      <path d="M292.4,466C292.4,466,292.4,466,292.4,466l-8.2-20c-0.8-1.9-2.6-3.1-4.6-3.1h-25c-2,0-3.8,1.2-4.6,3.1 l-8.2,19.9c0,0,0,0,0,0.1l-3.7,9.1c-1.1,2.6,0,5.4,2.4,6.6c0.7,0.3,1.4,0.5,2.2,0.5c2,0,3.8-1.2,4.6-3.1l2.5-6.1h34.8l2.5,6.1 c0.8,1.9,2.6,3.1,4.6,3.1c0.8,0,1.5-0.2,2.2-0.5c2.4-1.1,3.4-4,2.4-6.6L292.4,466z M280.3,462.9h-26.6l4.1-10h18.3L280.3,462.9z"/>
    </g>
  </g>
</svg> 